<svg xmlns="http://www.w3.org/2000/svg" width="341.86" height="35" viewBox="0 0 341.86 35"><rect class="svg__rect" x="0" y="0" width="117.93" height="35" fill="#5D9741"/><rect class="svg__rect" x="115.93" y="0" width="225.93" height="35" fill="#C1D72F"/><path class="svg__text" d="M15.60 22L13.63 13.47L15.10 13.47L16.43 19.88L18.06 13.47L19.30 13.47L20.91 19.89L22.22 13.47L23.69 13.47L21.72 22L20.31 22L18.68 15.77L17.02 22L15.60 22ZM27.49 18.00L27.49 18.00L27.49 17.52Q27.49 16.28 27.94 15.32Q28.38 14.37 29.18 13.86Q29.99 13.35 31.03 13.35Q32.08 13.35 32.88 13.85Q33.69 14.35 34.13 15.29Q34.57 16.23 34.57 17.48L34.57 17.48L34.57 17.96Q34.57 19.21 34.14 20.16Q33.71 21.10 32.90 21.61Q32.09 22.12 31.05 22.12L31.05 22.12Q30.01 22.12 29.20 21.61Q28.39 21.10 27.94 20.17Q27.50 19.23 27.49 18.00ZM28.98 17.46L28.98 17.96Q28.98 19.36 29.52 20.13Q30.07 20.90 31.05 20.90L31.05 20.90Q32.03 20.90 32.56 20.15Q33.09 19.40 33.09 17.96L33.09 17.96L33.09 17.51Q33.09 16.09 32.55 15.34Q32.02 14.58 31.03 14.58L31.03 14.58Q30.07 14.58 29.53 15.33Q28.99 16.09 28.98 17.46L28.98 17.46ZM40.52 22L39.04 22L39.04 13.47L42.04 13.47Q43.51 13.47 44.32 14.13Q45.12 14.79 45.12 16.05L45.12 16.05Q45.12 16.90 44.71 17.48Q44.29 18.06 43.56 18.37L43.56 18.37L45.47 21.92L45.47 22L43.88 22L42.17 18.71L40.52 18.71L40.52 22ZM40.52 14.66L40.52 17.52L42.04 17.52Q42.79 17.52 43.22 17.15Q43.64 16.77 43.64 16.11L43.64 16.11Q43.64 15.43 43.25 15.05Q42.86 14.68 42.08 14.66L42.08 14.66L40.52 14.66ZM51.00 22L49.51 22L49.51 13.47L51.00 13.47L51.00 17.47L51.82 16.46L54.31 13.47L56.11 13.47L52.94 17.25L56.29 22L54.53 22L51.96 18.31L51.00 19.34L51.00 22ZM59.63 19.42L59.63 19.42L61.12 19.42Q61.12 20.15 61.60 20.55Q62.08 20.95 62.97 20.95L62.97 20.95Q63.75 20.95 64.14 20.63Q64.53 20.32 64.53 19.80L64.53 19.80Q64.53 19.24 64.13 18.94Q63.73 18.63 62.70 18.32Q61.67 18.01 61.06 17.63L61.06 17.63Q59.90 16.90 59.90 15.72L59.90 15.72Q59.90 14.69 60.74 14.02Q61.58 13.35 62.92 13.35L62.92 13.35Q63.81 13.35 64.51 13.68Q65.21 14.01 65.60 14.61Q66.00 15.22 66.00 15.96L66.00 15.96L64.53 15.96Q64.53 15.29 64.11 14.91Q63.69 14.54 62.91 14.54L62.91 14.54Q62.18 14.54 61.78 14.85Q61.38 15.16 61.38 15.71L61.38 15.71Q61.38 16.18 61.81 16.50Q62.25 16.81 63.24 17.10Q64.24 17.40 64.84 17.78Q65.45 18.16 65.73 18.65Q66.01 19.13 66.01 19.79L66.01 19.79Q66.01 20.86 65.19 21.49Q64.37 22.12 62.97 22.12L62.97 22.12Q62.05 22.12 61.27 21.77Q60.49 21.43 60.06 20.83Q59.63 20.22 59.63 19.42ZM77.76 22L76.27 22L76.27 13.47L81.69 13.47L81.69 14.66L77.76 14.66L77.76 17.20L81.19 17.20L81.19 18.38L77.76 18.38L77.76 22ZM85.58 18.00L85.58 18.00L85.58 17.52Q85.58 16.28 86.03 15.32Q86.47 14.37 87.27 13.86Q88.08 13.35 89.12 13.35Q90.17 13.35 90.97 13.85Q91.78 14.35 92.22 15.29Q92.66 16.23 92.66 17.48L92.66 17.48L92.66 17.96Q92.66 19.21 92.23 20.16Q91.80 21.10 90.99 21.61Q90.18 22.12 89.14 22.12L89.14 22.12Q88.10 22.12 87.29 21.61Q86.47 21.10 86.03 20.17Q85.59 19.23 85.58 18.00ZM87.07 17.46L87.07 17.96Q87.07 19.36 87.61 20.13Q88.16 20.90 89.14 20.90L89.14 20.90Q90.12 20.90 90.65 20.15Q91.18 19.40 91.18 17.96L91.18 17.96L91.18 17.51Q91.18 16.09 90.64 15.34Q90.11 14.58 89.12 14.58L89.12 14.58Q88.16 14.58 87.62 15.33Q87.08 16.09 87.07 17.46L87.07 17.46ZM98.61 22L97.13 22L97.13 13.47L100.13 13.47Q101.60 13.47 102.41 14.13Q103.21 14.79 103.21 16.05L103.21 16.05Q103.21 16.90 102.80 17.48Q102.38 18.06 101.64 18.37L101.64 18.37L103.56 21.92L103.56 22L101.97 22L100.26 18.71L98.61 18.71L98.61 22ZM98.61 14.66L98.61 17.52L100.13 17.52Q100.88 17.52 101.31 17.15Q101.73 16.77 101.73 16.11L101.73 16.11Q101.73 15.43 101.34 15.05Q100.95 14.68 100.17 14.66L100.17 14.66L98.61 14.66Z" fill="#FFFFFF"/><path class="svg__text" d="M136.50 22L130.12 22L130.12 13.60L132.50 13.60L132.50 20.11L136.50 20.11L136.50 22ZM142.34 22L139.91 22L143.62 13.60L145.97 13.60L149.68 22L147.22 22L146.55 20.37L143.00 20.37L142.34 22ZM144.78 15.93L143.69 18.61L145.86 18.61L144.78 15.93ZM156.17 22L153.84 22L153.84 13.60L155.79 13.60L159.50 18.07L159.50 13.60L161.83 13.60L161.83 22L159.88 22L156.17 17.52L156.17 22ZM170.96 22L166.99 22L166.99 13.60L170.96 13.60Q172.35 13.60 173.41 14.12Q174.48 14.63 175.07 15.58Q175.66 16.53 175.66 17.80L175.66 17.80Q175.66 19.07 175.07 20.02Q174.48 20.97 173.41 21.48Q172.35 22 170.96 22L170.96 22ZM169.37 15.50L169.37 20.10L170.87 20.10Q171.95 20.10 172.60 19.49Q173.25 18.88 173.25 17.80L173.25 17.80Q173.25 16.72 172.60 16.11Q171.95 15.50 170.87 15.50L170.87 15.50L169.37 15.50ZM186.93 17.80L186.93 17.80Q186.93 16.54 187.53 15.54Q188.13 14.55 189.18 13.99Q190.23 13.43 191.55 13.43L191.55 13.43Q192.70 13.43 193.62 13.84Q194.55 14.25 195.16 15.02L195.16 15.02L193.65 16.39Q192.84 15.40 191.67 15.40L191.67 15.40Q190.99 15.40 190.45 15.70Q189.92 16 189.62 16.54Q189.33 17.09 189.33 17.80L189.33 17.80Q189.33 18.51 189.62 19.05Q189.92 19.60 190.45 19.90Q190.99 20.20 191.67 20.20L191.67 20.20Q192.84 20.20 193.65 19.22L193.65 19.22L195.16 20.58Q194.55 21.35 193.63 21.76Q192.70 22.17 191.55 22.17L191.55 22.17Q190.23 22.17 189.18 21.61Q188.13 21.05 187.53 20.05Q186.93 19.06 186.93 17.80ZM202.08 22L199.70 22L199.70 13.60L203.54 13.60Q204.68 13.60 205.52 13.98Q206.36 14.35 206.82 15.06Q207.27 15.76 207.27 16.71L207.27 16.71Q207.27 17.62 206.85 18.30Q206.42 18.98 205.63 19.36L205.63 19.36L207.44 22L204.90 22L203.37 19.77L202.08 19.77L202.08 22ZM202.08 15.47L202.08 17.93L203.40 17.93Q204.13 17.93 204.50 17.61Q204.87 17.29 204.87 16.71L204.87 16.71Q204.87 16.12 204.50 15.79Q204.13 15.47 203.40 15.47L203.40 15.47L202.08 15.47ZM211.99 18.26L211.99 18.26L211.99 13.60L214.37 13.60L214.37 18.19Q214.37 20.20 215.96 20.20L215.96 20.20Q217.55 20.20 217.55 18.19L217.55 18.19L217.55 13.60L219.89 13.60L219.89 18.26Q219.89 20.13 218.85 21.15Q217.81 22.17 215.94 22.17L215.94 22.17Q214.07 22.17 213.03 21.15Q211.99 20.13 211.99 18.26ZM227.35 22L224.98 22L224.98 13.60L227.35 13.60L227.35 22ZM231.94 21.24L231.94 21.24L232.72 19.49Q233.28 19.86 234.03 20.09Q234.77 20.32 235.49 20.32L235.49 20.32Q236.86 20.32 236.86 19.64L236.86 19.64Q236.86 19.28 236.47 19.11Q236.08 18.93 235.22 18.74L235.22 18.74Q234.27 18.53 233.63 18.30Q233.00 18.06 232.54 17.55Q232.09 17.03 232.09 16.16L232.09 16.16Q232.09 15.39 232.51 14.77Q232.93 14.15 233.76 13.79Q234.60 13.43 235.80 13.43L235.80 13.43Q236.63 13.43 237.44 13.62Q238.24 13.80 238.86 14.17L238.86 14.17L238.12 15.93Q236.92 15.28 235.79 15.28L235.79 15.28Q235.08 15.28 234.76 15.49Q234.44 15.70 234.44 16.04L234.44 16.04Q234.44 16.37 234.82 16.54Q235.21 16.71 236.06 16.89L236.06 16.89Q237.02 17.10 237.65 17.33Q238.28 17.56 238.74 18.07Q239.20 18.58 239.20 19.46L239.20 19.46Q239.20 20.21 238.78 20.83Q238.36 21.44 237.52 21.80Q236.68 22.17 235.48 22.17L235.48 22.17Q234.46 22.17 233.50 21.92Q232.54 21.67 231.94 21.24ZM250.52 22L243.78 22L243.78 13.60L250.37 13.60L250.37 15.44L246.13 15.44L246.13 16.85L249.87 16.85L249.87 18.63L246.13 18.63L246.13 20.17L250.52 20.17L250.52 22ZM257.71 22L255.33 22L255.33 13.60L259.17 13.60Q260.31 13.60 261.15 13.98Q261.99 14.35 262.45 15.06Q262.90 15.76 262.90 16.71L262.90 16.71Q262.90 17.62 262.48 18.30Q262.05 18.98 261.26 19.36L261.26 19.36L263.07 22L260.52 22L259.00 19.77L257.71 19.77L257.71 22ZM257.71 15.47L257.71 17.93L259.02 17.93Q259.76 17.93 260.13 17.61Q260.50 17.29 260.50 16.71L260.50 16.71Q260.50 16.12 260.13 15.79Q259.76 15.47 259.02 15.47L259.02 15.47L257.71 15.47ZM277.04 22L274.66 22L274.66 13.60L278.51 13.60Q279.64 13.60 280.48 13.98Q281.32 14.35 281.78 15.06Q282.24 15.76 282.24 16.71L282.24 16.71Q282.24 17.66 281.78 18.35Q281.32 19.05 280.48 19.42Q279.64 19.80 278.51 19.80L278.51 19.80L277.04 19.80L277.04 22ZM277.04 15.47L277.04 17.93L278.36 17.93Q279.09 17.93 279.46 17.61Q279.84 17.29 279.84 16.71L279.84 16.71Q279.84 16.12 279.46 15.80Q279.09 15.47 278.36 15.47L278.36 15.47L277.04 15.47ZM288.41 22L285.98 22L289.69 13.60L292.04 13.60L295.75 22L293.28 22L292.62 20.37L289.07 20.37L288.41 22ZM290.85 15.93L289.76 18.61L291.92 18.61L290.85 15.93ZM302.28 22L299.91 22L299.91 13.60L303.75 13.60Q304.89 13.60 305.73 13.98Q306.57 14.35 307.02 15.06Q307.48 15.76 307.48 16.71L307.48 16.71Q307.48 17.62 307.05 18.30Q306.63 18.98 305.83 19.36L305.83 19.36L307.65 22L305.10 22L303.58 19.77L302.28 19.77L302.28 22ZM302.28 15.47L302.28 17.93L303.60 17.93Q304.33 17.93 304.71 17.61Q305.08 17.29 305.08 16.71L305.08 16.71Q305.08 16.12 304.71 15.79Q304.33 15.47 303.60 15.47L303.60 15.47L302.28 15.47ZM314.06 15.48L311.48 15.48L311.48 13.60L319.00 13.60L319.00 15.48L316.43 15.48L316.43 22L314.06 22L314.06 15.48ZM322.79 21.24L322.79 21.24L323.57 19.49Q324.13 19.86 324.87 20.09Q325.62 20.32 326.34 20.32L326.34 20.32Q327.70 20.32 327.71 19.64L327.71 19.64Q327.71 19.28 327.32 19.11Q326.93 18.93 326.06 18.74L326.06 18.74Q325.11 18.53 324.48 18.30Q323.84 18.06 323.39 17.55Q322.93 17.03 322.93 16.16L322.93 16.16Q322.93 15.39 323.35 14.77Q323.77 14.15 324.61 13.79Q325.44 13.43 326.65 13.43L326.65 13.43Q327.47 13.43 328.28 13.62Q329.08 13.80 329.70 14.17L329.70 14.17L328.97 15.93Q327.77 15.28 326.64 15.28L326.64 15.28Q325.93 15.28 325.60 15.49Q325.28 15.70 325.28 16.04L325.28 16.04Q325.28 16.37 325.67 16.54Q326.05 16.71 326.90 16.89L326.90 16.89Q327.86 17.10 328.49 17.33Q329.12 17.56 329.58 18.07Q330.05 18.58 330.05 19.46L330.05 19.46Q330.05 20.21 329.63 20.83Q329.21 21.44 328.37 21.80Q327.53 22.17 326.32 22.17L326.32 22.17Q325.31 22.17 324.34 21.92Q323.38 21.67 322.79 21.24Z" fill="#595959" x="128.93"/></svg>